<?xml version="1.0" encoding="UTF-8"?>
<!-- Generator: visioncortex VTracer 0.6.3 -->
<svg version="1.1" xmlns="http://www.w3.org/2000/svg" width="1280" height="1280">
<path d="M0 0 C1.3 -0.01 2.61 -0.01 3.95 -0.02 C5.4 -0.01 6.86 -0.01 8.31 -0 C9.85 -0 11.39 -0.01 12.92 -0.01 C17.16 -0.02 21.4 -0.02 25.64 -0.01 C30.21 -0.01 34.77 -0.01 39.34 -0.02 C48.29 -0.03 57.24 -0.02 66.2 -0.02 C73.47 -0.01 80.75 -0.01 88.03 -0.02 C89.06 -0.02 90.1 -0.02 91.16 -0.02 C93.27 -0.02 95.37 -0.02 97.47 -0.02 C117.2 -0.02 136.93 -0.02 156.66 -0.01 C173.59 0 190.51 0 207.44 -0.01 C227.09 -0.02 246.73 -0.02 266.38 -0.02 C268.48 -0.02 270.57 -0.02 272.67 -0.02 C273.7 -0.02 274.73 -0.02 275.8 -0.02 C283.06 -0.01 290.32 -0.02 297.59 -0.02 C306.45 -0.03 315.31 -0.02 324.17 -0.01 C328.69 -0.01 333.21 -0.01 337.73 -0.01 C341.87 -0.02 346.01 -0.02 350.15 -0.01 C351.65 -0 353.14 -0 354.63 -0.01 C361.82 -0.03 368.73 0.09 375.76 1.77 C379.78 2.71 383.9 3.03 388 3.46 C394.08 4.16 399.7 5.58 405.26 8.13 C406.01 8.47 406.77 8.82 407.55 9.17 C410.4 10.53 413.21 11.94 416.02 13.37 C418.24 14.46 420.5 15.38 422.82 16.25 C422.82 17.24 422.82 18.23 422.82 19.25 C423.87 19.31 424.92 19.38 426.01 19.44 C430.59 20.42 431.72 21.84 434.82 25.25 C436.56 26.58 438.35 27.81 440.17 29.04 C441.92 30.32 443.39 31.62 444.82 33.25 C444.82 33.91 444.82 34.57 444.82 35.25 C445.48 35.25 446.14 35.25 446.82 35.25 C447.48 36.9 448.14 38.55 448.82 40.25 C449.48 40.25 450.14 40.25 450.82 40.25 C455.82 45.73 455.82 45.73 455.82 48.25 C456.48 48.25 457.14 48.25 457.82 48.25 C459.79 51.77 461.74 55.29 463.69 58.81 C464.25 59.8 464.8 60.8 465.38 61.82 C468.2 66.93 470.49 71.57 471.82 77.25 C472.31 78.65 472.81 80.05 473.32 81.44 C476.25 90.19 477.02 99.28 477.57 108.44 C477.78 110.85 478.2 112.93 478.82 115.25 C479.92 115.25 481.02 115.25 482.15 115.25 C508.92 115.2 535.68 115.17 562.45 115.15 C575.39 115.14 588.34 115.12 601.28 115.1 C612.56 115.08 623.85 115.07 635.13 115.06 C641.1 115.06 647.08 115.05 653.05 115.04 C658.67 115.03 664.3 115.02 669.92 115.03 C671.99 115.02 674.05 115.02 676.11 115.01 C678.93 115 681.75 115.01 684.57 115.01 C685.38 115.01 686.19 115 687.03 114.99 C691.84 115.02 696.21 115.62 700.88 116.78 C703.38 117.39 705.89 117.72 708.44 118.06 C723.01 120.46 738.23 126.57 750.82 134.25 C753.01 134.95 753.01 134.95 754.82 135.25 C754.82 136.24 754.82 137.23 754.82 138.25 C755.81 138.25 756.8 138.25 757.82 138.25 C757.82 138.91 757.82 139.57 757.82 140.25 C758.52 140.48 759.22 140.71 759.94 140.94 C763.43 142.53 765.9 144.77 768.82 147.25 C769.48 147.57 770.15 147.88 770.83 148.21 C773.04 149.37 774.05 150.49 775.57 152.44 C777.86 155.26 780.27 157.56 783.07 159.88 C786.06 162.41 787.86 164.32 788.82 168.25 C789.48 168.25 790.14 168.25 790.82 168.25 C792.88 170.59 794.62 172.92 796.2 175.61 C797.87 178.34 799.73 180.79 801.69 183.31 C805.26 188.15 807.62 192.91 809.71 198.53 C810.84 201.31 812.27 203.69 813.82 206.25 C814.39 207.71 814.91 209.19 815.38 210.69 C816.16 213.18 816.96 215.62 817.88 218.06 C819.08 222.14 819.66 226.24 820.26 230.45 C820.66 233.18 820.66 233.18 821.84 235.14 C822.97 237.58 823.07 239.23 823.07 241.92 C823.08 243.33 823.08 243.33 823.08 244.77 C823.08 245.8 823.07 246.84 823.07 247.9 C823.07 249.01 823.08 250.11 823.08 251.24 C823.09 254.97 823.08 258.7 823.07 262.43 C823.07 265.11 823.08 267.8 823.08 270.49 C823.09 276.34 823.09 282.2 823.08 288.06 C823.08 296.77 823.08 305.48 823.09 314.19 C823.1 329.74 823.1 345.3 823.09 360.85 C823.08 374.46 823.08 388.07 823.09 401.68 C823.09 403.04 823.09 403.04 823.09 404.42 C823.09 408.08 823.09 411.74 823.09 415.4 C823.09 449.76 823.09 484.11 823.08 518.47 C823.07 549.02 823.07 579.56 823.08 610.11 C823.09 644.4 823.09 678.7 823.09 712.99 C823.09 716.65 823.09 720.3 823.09 723.95 C823.09 724.85 823.09 725.75 823.09 726.68 C823.08 740.28 823.09 753.89 823.09 767.49 C823.1 782.96 823.09 798.42 823.08 813.89 C823.08 822.55 823.08 831.21 823.09 839.87 C823.09 845.65 823.09 851.43 823.08 857.21 C823.07 860.5 823.07 863.8 823.08 867.1 C823.09 870.64 823.08 874.18 823.07 877.73 C823.07 878.76 823.08 879.8 823.08 880.86 C823.08 881.8 823.07 882.74 823.07 883.71 C823.07 884.93 823.07 884.93 823.07 886.17 C822.82 888.25 822.82 888.25 820.82 891.25 C820.39 893.2 820.05 895.16 819.76 897.13 C818.14 907.77 818.14 907.77 815.82 911.25 C815.02 914.1 814.36 916.97 813.7 919.85 C813.26 921.04 813.26 921.04 812.82 922.25 C811.83 922.58 810.84 922.91 809.82 923.25 C809.63 924.33 809.63 924.33 809.44 925.44 C808.83 928.21 807.93 930.65 806.82 933.25 C806.16 933.25 805.5 933.25 804.82 933.25 C804.67 934.31 804.67 934.31 804.51 935.39 C803.72 938.66 802.41 941.14 800.76 944.06 C799.93 945.53 799.93 945.53 799.1 947.02 C798.67 947.76 798.25 948.49 797.82 949.25 C797.16 949.25 796.5 949.25 795.82 949.25 C795.42 950.43 795.42 950.43 795.01 951.63 C793.82 954.25 793.82 954.25 790.82 956.25 C789.77 957.89 788.77 959.56 787.82 961.25 C787.16 962.24 786.5 963.23 785.82 964.25 C785.16 964.25 784.5 964.25 783.82 964.25 C783.49 965.24 783.16 966.23 782.82 967.25 C782.16 967.25 781.5 967.25 780.82 967.25 C780.82 967.91 780.82 968.57 780.82 969.25 C780.16 969.25 779.5 969.25 778.82 969.25 C778.49 970.24 778.16 971.23 777.82 972.25 C777.16 972.25 776.5 972.25 775.82 972.25 C775.82 972.91 775.82 973.57 775.82 974.25 C773.17 976.61 771.2 978.12 767.82 979.25 C767.16 979.95 766.5 980.65 765.82 981.38 C759.8 987.64 750.71 992.68 742.82 996.25 C741.83 996.25 740.84 996.25 739.82 996.25 C739.82 996.91 739.82 997.57 739.82 998.25 C738.15 998.93 736.49 999.59 734.82 1000.25 C733.68 1000.71 732.55 1001.16 731.38 1001.63 C726.31 1003.53 721.1 1004.93 715.89 1006.38 C713.85 1006.96 711.83 1007.58 709.82 1008.25 C706.73 1008.56 703.63 1008.76 700.53 1008.97 C697.85 1009.09 697.85 1009.09 695.82 1010.25 C693.55 1010.35 691.28 1010.38 689.01 1010.38 C688.3 1010.38 687.59 1010.38 686.85 1010.38 C684.43 1010.39 682.02 1010.38 679.6 1010.38 C677.85 1010.38 676.11 1010.38 674.36 1010.39 C669.52 1010.39 664.68 1010.39 659.84 1010.39 C654.59 1010.38 649.34 1010.39 644.09 1010.39 C634.88 1010.4 625.66 1010.4 616.44 1010.4 C602.74 1010.4 589.04 1010.4 575.33 1010.41 C549.44 1010.42 523.54 1010.42 497.64 1010.42 C494.78 1010.42 491.92 1010.42 489.07 1010.42 C488.36 1010.42 487.65 1010.42 486.92 1010.42 C471.21 1010.42 455.5 1010.42 439.79 1010.42 C433.33 1010.43 426.86 1010.43 420.4 1010.43 C419.69 1010.43 418.97 1010.43 418.24 1010.43 C377.29 1010.43 336.34 1010.44 295.4 1010.44 C293.86 1010.44 292.33 1010.44 290.8 1010.44 C283.88 1010.44 276.95 1010.44 270.03 1010.44 C266.94 1010.44 263.86 1010.44 260.77 1010.44 C259.23 1010.44 257.68 1010.44 256.14 1010.44 C207.3 1010.44 158.46 1010.44 109.62 1010.46 C97.31 1010.46 85.01 1010.46 72.71 1010.47 C71.95 1010.47 71.2 1010.47 70.42 1010.47 C47.07 1010.47 23.73 1010.48 0.38 1010.48 C-0.35 1010.48 -1.09 1010.48 -1.84 1010.48 C-17.93 1010.48 -34.02 1010.48 -50.12 1010.48 C-55.87 1010.48 -61.63 1010.48 -67.39 1010.48 C-68.82 1010.48 -70.25 1010.48 -71.69 1010.48 C-94.51 1010.48 -117.34 1010.49 -140.17 1010.49 C-163.8 1010.5 -187.43 1010.5 -211.07 1010.5 C-224.7 1010.49 -238.33 1010.5 -251.95 1010.51 C-261.05 1010.51 -270.15 1010.51 -279.25 1010.5 C-284.44 1010.5 -289.63 1010.5 -294.82 1010.51 C-299.54 1010.51 -304.26 1010.51 -308.98 1010.5 C-310.68 1010.5 -312.37 1010.5 -314.07 1010.51 C-338.02 1010.58 -338.02 1010.58 -346.18 1006.25 C-348.22 1005.84 -350.26 1005.47 -352.31 1005.13 C-358.43 1003.87 -363.86 1001.92 -369.56 999.38 C-370.29 999.05 -371.03 998.72 -371.79 998.38 C-376.18 996.36 -380.27 994.04 -384.34 991.43 C-386.85 989.82 -389.45 988.39 -392.06 986.94 C-397.91 983.55 -403.02 979.59 -408.18 975.25 C-409.1 974.55 -410.02 973.86 -410.97 973.14 C-411.7 972.52 -412.43 971.89 -413.18 971.25 C-413.18 970.59 -413.18 969.93 -413.18 969.25 C-413.84 969.25 -414.5 969.25 -415.18 969.25 C-415.18 968.59 -415.18 967.93 -415.18 967.25 C-416.17 966.92 -417.16 966.59 -418.18 966.25 C-418.18 965.59 -418.18 964.93 -418.18 964.25 C-418.84 964.25 -419.5 964.25 -420.18 964.25 C-421.57 962.65 -422.9 961 -424.18 959.31 C-426.73 955.74 -426.73 955.74 -430.18 953.25 C-431.51 951.01 -432.68 948.7 -433.87 946.38 C-435.15 943.97 -435.15 943.97 -438.18 942.25 C-439.62 938.65 -440.51 935.06 -441.18 931.25 C-441.84 931.25 -442.5 931.25 -443.18 931.25 C-449.22 918.96 -453.38 906.4 -457.18 893.25 C-456.52 893.25 -455.86 893.25 -455.18 893.25 C-456.17 891.77 -456.17 891.77 -457.18 890.25 C-457.43 888.16 -457.43 888.16 -457.43 885.7 C-457.44 884.76 -457.44 883.82 -457.45 882.86 C-457.44 881.82 -457.44 880.78 -457.43 879.71 C-457.43 878.61 -457.44 877.51 -457.44 876.37 C-457.45 872.64 -457.44 868.91 -457.43 865.17 C-457.43 862.48 -457.43 859.8 -457.44 857.11 C-457.44 851.24 -457.44 845.38 -457.43 839.51 C-457.42 830.79 -457.43 822.07 -457.43 813.35 C-457.44 798.68 -457.43 784.01 -457.42 769.34 C-457.42 754.81 -457.41 740.27 -457.41 725.74 C-457.41 724.84 -457.41 723.93 -457.41 723 C-457.41 719.34 -457.41 715.67 -457.41 712.01 C-457.41 677.6 -457.4 643.19 -457.39 608.79 C-457.37 578.2 -457.37 547.61 -457.37 517.03 C-457.37 515.06 -457.37 513.1 -457.37 511.14 C-457.37 510.17 -457.37 509.2 -457.37 508.2 C-457.37 503.31 -457.37 498.42 -457.37 493.54 C-457.37 492.57 -457.37 491.61 -457.37 490.62 C-457.37 465.08 -457.36 439.55 -457.36 414.01 C-457.36 413.1 -457.36 412.19 -457.36 411.26 C-457.36 407.61 -457.36 403.95 -457.35 400.3 C-457.35 387.58 -457.35 374.86 -457.35 362.15 C-457.35 345.76 -457.34 329.37 -457.33 312.98 C-457.33 304.31 -457.33 295.63 -457.33 286.96 C-457.33 281.17 -457.33 275.38 -457.32 269.6 C-457.32 266.3 -457.32 262.99 -457.32 259.69 C-457.32 256.14 -457.32 252.59 -457.31 249.04 C-457.31 248.01 -457.31 246.98 -457.32 245.91 C-457.31 244.97 -457.31 244.02 -457.31 243.05 C-457.31 242.24 -457.31 241.43 -457.31 240.59 C-457.17 238.06 -456.72 235.72 -456.18 233.25 C-456 231.86 -455.83 230.46 -455.68 229.06 C-455.18 225.25 -455.18 225.25 -454.18 223.25 C-453.51 220.92 -452.84 218.59 -452.18 216.25 C-451.11 212.77 -450.21 210.3 -448.18 207.25 C-447.81 205.93 -447.48 204.59 -447.18 203.25 C-446.18 200.25 -446.18 200.25 -444.68 197.81 C-443.35 195.54 -442.66 193.82 -442.18 191.25 C-441.85 191.58 -441.52 191.91 -441.18 192.25 C-441.1 191.67 -441.02 191.1 -440.93 190.5 C-439.97 187.62 -438.34 186.35 -436.18 184.25 C-435.48 182.94 -434.81 181.6 -434.18 180.25 C-433.67 179.57 -433.15 178.89 -432.62 178.19 C-431 176.21 -431 176.21 -430.18 173.25 C-428.85 171.92 -427.52 170.59 -426.18 169.25 C-425.47 168.05 -425.47 168.05 -424.74 166.81 C-422.89 163.77 -420.77 161.72 -418.18 159.25 C-417.12 158.16 -417.12 158.16 -416.03 157.04 C-415.26 156.24 -414.48 155.45 -413.68 154.63 C-412.95 153.87 -412.22 153.12 -411.46 152.34 C-409.17 150.24 -406.84 148.83 -404.18 147.25 C-403.85 146.59 -403.52 145.93 -403.18 145.25 C-402.19 145.25 -401.2 145.25 -400.18 145.25 C-400.18 144.59 -400.18 143.93 -400.18 143.25 C-398.22 141.54 -396.22 139.87 -394.18 138.25 C-393.85 138.58 -393.52 138.91 -393.18 139.25 C-392.67 138.65 -392.15 138.06 -391.62 137.44 C-389.43 135.47 -388.14 134.69 -385.49 133.63 C-382.11 132.64 -382.11 132.64 -381.18 130.25 C-379.56 129.75 -379.56 129.75 -377.18 129.25 C-374.85 128.59 -372.51 127.92 -370.18 127.25 C-370.18 126.59 -370.18 125.93 -370.18 125.25 C-369.42 125.05 -368.66 124.84 -367.88 124.63 C-366.89 124.36 -365.89 124.09 -364.87 123.81 C-363.88 123.55 -362.9 123.28 -361.88 123.01 C-359.97 122.47 -358.07 121.88 -356.18 121.25 C-356.18 120.92 -356.18 120.59 -356.18 120.25 C-351.73 119.76 -351.73 119.76 -347.18 119.25 C-347.18 118.92 -347.18 118.59 -347.18 118.25 C-346.27 118.2 -345.35 118.15 -344.41 118.1 C-342.63 117.99 -342.63 117.99 -340.81 117.88 C-339.62 117.81 -338.44 117.74 -337.22 117.67 C-334.08 117.55 -334.08 117.55 -332.18 115.25 C-329.32 115.06 -326.56 114.99 -323.7 115.01 C-322.82 115.01 -321.93 115.01 -321.01 115.01 C-318.02 115 -315.03 115.01 -312.04 115.02 C-309.9 115.03 -307.76 115.02 -305.62 115.02 C-299.8 115.02 -293.98 115.03 -288.16 115.05 C-282.08 115.06 -276.01 115.06 -269.93 115.06 C-258.42 115.07 -246.9 115.09 -235.39 115.11 C-222.29 115.13 -209.18 115.14 -196.08 115.15 C-169.11 115.17 -142.15 115.21 -115.18 115.25 C-115.02 113.84 -114.86 112.43 -114.7 111.02 C-114.61 110.24 -114.52 109.45 -114.42 108.64 C-113.98 104.3 -113.83 99.95 -113.66 95.59 C-113.57 93.8 -113.39 92.03 -113.18 90.25 C-112.52 89.92 -111.86 89.59 -111.18 89.25 C-110.72 87.36 -110.72 87.36 -110.56 85.19 C-110.43 83.89 -110.31 82.59 -110.18 81.25 C-109.52 81.25 -108.86 81.25 -108.18 81.25 C-108.18 78.94 -108.18 76.63 -108.18 74.25 C-107.52 73.92 -106.86 73.59 -106.18 73.25 C-106.04 72.14 -105.89 71.02 -105.74 69.88 C-105.18 66.25 -105.18 66.25 -103.74 64.31 C-102.18 63.25 -102.18 63.25 -100.18 63.25 C-100.24 62.14 -100.24 62.14 -100.31 61 C-100.05 55.42 -96.48 51.46 -92.56 47.69 C-91.06 46.27 -91.06 46.27 -90.18 44.19 C-89.18 42.25 -89.18 42.25 -86.18 40.25 C-84.2 37.5 -84.2 37.5 -83.37 35.19 C-81.77 32.58 -79.97 32.33 -77.18 31.25 C-76.85 30.26 -76.52 29.27 -76.18 28.25 C-75.19 27.92 -74.2 27.59 -73.18 27.25 C-71.49 25.61 -69.83 23.94 -68.18 22.25 C-64.61 19.05 -61.71 17.7 -57.18 16.25 C-54.79 15 -52.5 13.63 -50.18 12.25 C-48.85 11.59 -47.52 10.92 -46.18 10.25 C-44.7 9.26 -44.7 9.26 -43.18 8.25 C-41.21 7.91 -41.21 7.91 -39.12 7.75 C-35.18 7.66 -35.18 7.66 -33.18 5.25 C-31.19 4.85 -29.19 4.51 -27.18 4.25 C-27.18 3.92 -27.18 3.59 -27.18 3.25 C-25.92 3.2 -24.65 3.15 -23.35 3.1 C-21.69 3.03 -20.03 2.95 -18.37 2.88 C-17.54 2.85 -16.7 2.81 -15.84 2.78 C-15.04 2.74 -14.24 2.71 -13.41 2.67 C-12.67 2.63 -11.94 2.6 -11.18 2.57 C-6.89 1.89 -4.73 0 0 0 Z M-8.18 67.25 C-10.1 67.65 -10.1 67.65 -12.06 68.06 C-17.13 69.31 -21.61 71.8 -26.18 74.25 C-26.18 74.91 -26.18 75.57 -26.18 76.25 C-27.13 76.46 -28.08 76.66 -29.06 76.88 C-32.47 77.96 -32.47 77.96 -33.56 81.38 C-33.87 82.8 -33.87 82.8 -34.18 84.25 C-34.84 84.25 -35.5 84.25 -36.18 84.25 C-36.84 85.37 -37.5 86.48 -38.18 87.63 C-38.55 88.25 -38.92 88.88 -39.31 89.53 C-40.33 91.23 -40.33 91.23 -40.18 93.25 C-40.84 93.25 -41.5 93.25 -42.18 93.25 C-44.69 101.03 -45.62 108.08 -45.62 116.24 C-45.64 117.34 -45.65 118.44 -45.66 119.57 C-45.7 123.05 -45.73 126.52 -45.74 130 C-45.77 133.49 -45.8 136.99 -45.84 140.48 C-45.86 142.64 -45.88 144.8 -45.88 146.97 C-45.94 152.42 -46.2 157.14 -48.18 162.25 C-48.84 162.58 -49.5 162.91 -50.18 163.25 C-50.62 164.16 -51.05 165.07 -51.49 166 C-54.67 172.12 -59.94 176.41 -66.18 179.25 C-68.58 179.74 -70.86 179.99 -73.3 180.11 C-75.27 180.14 -75.27 180.14 -77.18 181.25 C-80.27 181.36 -83.34 181.4 -86.43 181.4 C-87.4 181.41 -88.38 181.41 -89.38 181.42 C-92.65 181.43 -95.93 181.44 -99.2 181.44 C-101.54 181.45 -103.88 181.46 -106.22 181.47 C-111.28 181.48 -116.33 181.5 -121.38 181.51 C-128.7 181.53 -136.03 181.56 -143.35 181.58 C-155.25 181.62 -167.15 181.66 -179.05 181.7 C-180.12 181.7 -180.12 181.7 -181.21 181.71 C-185.54 181.72 -189.87 181.73 -194.2 181.75 C-200.68 181.76 -207.15 181.78 -213.62 181.8 C-214.68 181.81 -214.68 181.81 -215.77 181.81 C-227.61 181.85 -239.44 181.89 -251.28 181.93 C-259.22 181.96 -267.17 181.98 -275.11 182 C-280.07 182.01 -285.03 182.03 -289.99 182.05 C-292.27 182.06 -294.56 182.06 -296.85 182.07 C-317.12 180.74 -317.12 180.74 -336.18 185.25 C-337.07 185.53 -337.95 185.82 -338.86 186.11 C-343.19 187.6 -347.21 189.54 -351.31 191.56 C-352.5 192.13 -352.5 192.13 -353.73 192.71 C-358.32 194.98 -361.2 196.95 -364.18 201.25 C-364.84 201.58 -365.5 201.91 -366.18 202.25 C-366.18 202.91 -366.18 203.57 -366.18 204.25 C-366.74 204.46 -367.3 204.66 -367.87 204.88 C-371.05 206.77 -372.89 209.37 -375.18 212.25 C-375.7 212.75 -376.21 213.24 -376.74 213.75 C-380 217.15 -382.16 220.67 -383.18 225.25 C-383.84 225.58 -384.5 225.91 -385.18 226.25 C-385.88 227.9 -386.55 229.57 -387.18 231.25 C-387.51 231.58 -387.84 231.91 -388.18 232.25 C-388.73 234.96 -389.22 237.66 -389.68 240.38 C-389.88 241.5 -389.88 241.5 -390.08 242.64 C-390.69 246.17 -391.25 249.69 -391.71 253.24 C-392.18 256.25 -392.18 256.25 -393.18 257.25 C-393.28 258.6 -393.31 259.94 -393.31 261.29 C-393.31 262.17 -393.31 263.05 -393.32 263.95 C-393.31 264.93 -393.31 265.9 -393.31 266.91 C-393.31 267.94 -393.31 268.97 -393.32 270.04 C-393.32 273.54 -393.32 277.05 -393.32 280.55 C-393.32 283.07 -393.32 285.59 -393.32 288.11 C-393.33 293.61 -393.33 299.11 -393.33 304.62 C-393.33 312.8 -393.33 320.98 -393.34 329.16 C-393.35 344.63 -393.35 360.09 -393.35 375.55 C-393.35 387.49 -393.35 399.43 -393.35 411.37 C-393.36 414.8 -393.36 418.24 -393.36 421.67 C-393.36 422.52 -393.36 423.38 -393.36 424.25 C-393.36 448.27 -393.37 472.29 -393.37 496.3 C-393.37 497.21 -393.37 498.12 -393.37 499.05 C-393.37 503.64 -393.37 508.24 -393.37 512.83 C-393.37 513.74 -393.37 514.66 -393.37 515.6 C-393.37 517.44 -393.37 519.29 -393.37 521.13 C-393.37 549.83 -393.37 578.53 -393.39 607.23 C-393.4 639.45 -393.41 671.67 -393.41 703.89 C-393.41 707.33 -393.41 710.76 -393.41 714.2 C-393.41 715.04 -393.41 715.89 -393.41 716.76 C-393.41 730.38 -393.42 744.01 -393.43 757.63 C-393.43 771.32 -393.44 785.01 -393.43 798.7 C-393.42 806.84 -393.43 814.97 -393.44 823.11 C-393.44 829.18 -393.44 835.25 -393.43 841.32 C-393.43 843.78 -393.43 846.24 -393.44 848.7 C-393.44 852.04 -393.44 855.38 -393.43 858.71 C-393.44 859.67 -393.44 860.63 -393.45 861.62 C-393.42 867.18 -392.72 871.91 -391.18 877.25 C-390.88 879.53 -390.69 881.78 -390.53 884.08 C-389.86 888.27 -387.83 892.08 -386.02 895.9 C-385.62 896.74 -385.22 897.58 -384.81 898.45 C-384.39 899.31 -383.98 900.17 -383.56 901.06 C-383.14 901.95 -382.72 902.83 -382.28 903.74 C-381.25 905.91 -380.22 908.08 -379.18 910.25 C-378.52 910.25 -377.86 910.25 -377.18 910.25 C-377 911.12 -376.81 911.98 -376.62 912.88 C-374.76 917.24 -372.06 919.6 -368.18 922.25 C-367.19 922.58 -366.2 922.91 -365.18 923.25 C-364.85 924.24 -364.52 925.23 -364.18 926.25 C-362.62 927.66 -362.62 927.66 -360.74 928.88 C-360.13 929.3 -359.51 929.73 -358.87 930.17 C-357.17 931.3 -357.17 931.3 -355.18 932.25 C-354.85 932.91 -354.52 933.57 -354.18 934.25 C-352.24 935.05 -352.24 935.05 -349.93 935.69 C-346.31 936.82 -343.43 938.27 -340.18 940.25 C-338.53 940.64 -336.86 940.97 -335.18 941.25 C-334.13 941.59 -333.07 941.92 -331.98 942.26 C-328.06 943.28 -324.79 943.5 -320.74 943.5 C-320.02 943.5 -319.3 943.51 -318.56 943.51 C-316.14 943.51 -313.73 943.51 -311.31 943.5 C-309.56 943.5 -307.8 943.5 -306.04 943.5 C-301.2 943.51 -296.36 943.5 -291.51 943.5 C-286.25 943.49 -280.99 943.49 -275.73 943.5 C-266.5 943.5 -257.27 943.5 -248.04 943.49 C-234.31 943.48 -220.59 943.48 -206.87 943.48 C-183.78 943.48 -160.7 943.48 -137.62 943.46 C-114.75 943.45 -91.89 943.44 -69.03 943.44 C-67.97 943.44 -67.97 943.44 -66.88 943.44 C-60.4 943.44 -53.91 943.44 -47.43 943.44 C-31.31 943.44 -15.19 943.44 0.92 943.43 C2.03 943.43 2.03 943.43 3.15 943.43 C38.86 943.43 74.57 943.42 110.27 943.4 C122.67 943.4 135.06 943.39 147.45 943.39 C148.22 943.39 148.99 943.39 149.78 943.39 C185.5 943.38 221.23 943.37 256.96 943.36 C259.27 943.36 261.59 943.36 263.91 943.36 C279.28 943.36 294.65 943.36 310.02 943.35 C340.6 943.35 371.19 943.34 401.77 943.34 C403.22 943.34 404.68 943.34 406.14 943.34 C491.11 943.32 576.08 943.29 696.82 943.25 C697.15 942.59 697.48 941.93 697.82 941.25 C699.81 941.02 701.81 940.8 703.81 940.6 C706.45 940.14 707.97 939.18 709.82 937.25 C709.82 936.59 709.82 935.93 709.82 935.25 C710.4 935.47 710.98 935.7 711.57 935.93 C713.87 936.5 713.87 936.5 715.78 935.11 C716.43 934.56 717.08 934.01 717.76 933.44 C721.6 930.33 721.6 930.33 724.38 929.38 C727.83 927.78 729.65 925.17 732.05 922.28 C733.63 920.47 735.19 919 737.07 917.5 C739.48 915.53 741.22 913.91 742.82 911.25 C742.82 910.26 742.82 909.27 742.82 908.25 C743.48 908.25 744.14 908.25 744.82 908.25 C745.22 907.42 745.22 907.42 745.63 906.56 C747.47 902.98 749.58 899.61 751.82 896.25 C752.07 894.46 752.07 894.46 752.32 892.63 C752.48 891.51 752.65 890.4 752.82 889.25 C753.48 888.92 754.14 888.59 754.82 888.25 C755.29 885.67 755.29 885.67 755.44 882.69 C755.52 881.68 755.59 880.67 755.67 879.62 C755.72 878.84 755.77 878.06 755.82 877.25 C756.15 877.25 756.48 877.25 756.82 877.25 C756.87 816.81 756.92 756.37 756.94 695.93 C756.95 695.04 756.95 694.14 756.95 693.22 C756.96 673.79 756.96 654.36 756.97 634.92 C756.97 625.39 756.98 615.86 756.98 606.33 C756.98 605.39 756.98 604.44 756.98 603.46 C757 572.71 757.02 541.96 757.05 511.21 C757.08 479.62 757.09 448.03 757.1 416.43 C757.1 411.97 757.1 407.51 757.1 403.05 C757.1 402.17 757.1 401.3 757.1 400.39 C757.11 386.25 757.12 372.1 757.14 357.96 C757.16 343.75 757.16 329.54 757.16 315.33 C757.16 306.88 757.16 298.43 757.18 289.98 C757.19 283.68 757.19 277.38 757.18 271.08 C757.18 268.53 757.18 265.97 757.19 263.42 C757.2 259.95 757.2 256.49 757.19 253.03 C757.19 252.03 757.2 251.03 757.21 250 C757.17 244.27 756.41 240.37 753.82 235.25 C753.48 233.59 753.15 231.92 752.82 230.25 C751.9 227.88 750.87 225.58 749.82 223.25 C749.16 223.25 748.5 223.25 747.82 223.25 C747.63 222.26 747.45 221.27 747.26 220.25 C745.82 215.2 742.4 211.94 738.82 208.25 C737.58 206.95 737.58 206.95 736.32 205.63 C733.77 203.21 731.14 200.93 728.45 198.67 C726.82 197.25 726.82 197.25 724.69 195 C722.52 192.97 720.6 192.27 717.82 191.25 C716.67 190.54 716.67 190.54 715.51 189.81 C710.58 186.95 705.42 185.24 699.82 184.25 C699.16 183.92 698.5 183.59 697.82 183.25 C685.74 181.56 673.32 182.08 661.16 182.06 C658.78 182.05 656.39 182.05 654.01 182.04 C648.9 182.02 643.79 182 638.69 181.99 C631.3 181.97 623.91 181.95 616.53 181.92 C604.54 181.88 592.54 181.84 580.55 181.8 C579.84 181.8 579.12 181.8 578.38 181.8 C571.84 181.78 565.3 181.76 558.76 181.74 C554.39 181.73 550.02 181.71 545.65 181.7 C544.93 181.7 544.21 181.7 543.47 181.69 C531.51 181.66 519.55 181.62 507.58 181.57 C500.87 181.55 494.16 181.53 487.45 181.51 C481.15 181.5 474.85 181.48 468.56 181.45 C466.24 181.45 463.92 181.44 461.61 181.43 C458.46 181.43 455.31 181.42 452.16 181.4 C451.23 181.4 450.3 181.4 449.35 181.4 C443.05 181.37 443.05 181.37 440.82 180.25 C439.44 180.18 438.07 180.17 436.69 180.19 C435.41 180.21 434.14 180.23 432.82 180.25 C432.82 179.59 432.82 178.93 432.82 178.25 C431.93 177.82 431.04 177.39 430.13 176.94 C421.75 172.67 421.75 172.67 419.82 168.25 C419.32 167.78 418.83 167.3 418.32 166.81 C416.4 164.82 415.76 162.84 414.82 160.25 C414.47 159.63 414.13 159 413.78 158.36 C412.72 156.05 412.55 154.49 412.51 151.96 C412.49 150.7 412.49 150.7 412.46 149.42 C412.45 148.08 412.45 148.08 412.44 146.71 C412.42 145.78 412.4 144.86 412.39 143.91 C412.33 140.96 412.29 138.01 412.26 135.06 C412.21 132.11 412.16 129.15 412.11 126.19 C412.08 124.35 412.05 122.51 412.03 120.67 C412.37 116.64 412.37 116.64 410.82 113.25 C411.15 113.25 411.48 113.25 411.82 113.25 C411.34 107.68 410.47 102.62 408.82 97.25 C408.67 96.36 408.53 95.48 408.38 94.56 C407.72 91.85 406.53 90.44 404.82 88.25 C404.11 86.6 403.43 84.94 402.82 83.25 C401.83 83.25 400.84 83.25 399.82 83.25 C399.76 82.42 399.76 82.42 399.69 81.56 C397.91 76.84 393.23 74.3 388.82 72.25 C388.16 71.59 387.5 70.93 386.82 70.25 C370.77 63.17 352.8 64.55 335.65 64.64 C331.15 64.66 326.65 64.65 322.15 64.64 C313.37 64.63 304.58 64.65 295.79 64.67 C285.55 64.7 275.31 64.7 265.06 64.7 C246.79 64.7 228.52 64.73 210.25 64.76 C192.53 64.8 174.81 64.82 157.09 64.83 C155.99 64.83 154.9 64.83 153.77 64.83 C152.68 64.83 151.59 64.83 150.47 64.83 C148.27 64.83 146.07 64.83 143.88 64.83 C142.79 64.83 141.71 64.83 140.59 64.83 C123.68 64.83 106.77 64.85 89.86 64.87 C83.74 64.88 77.61 64.88 71.49 64.89 C61.79 64.89 52.08 64.9 42.38 64.93 C37.95 64.94 33.51 64.95 29.08 64.95 C25.02 64.95 20.96 64.95 16.91 64.97 C15.44 64.98 13.97 64.98 12.51 64.97 C5.27 64.96 -1.25 65.09 -8.18 67.25 Z M-38.18 80.25 C-38.18 81.24 -38.18 82.23 -38.18 83.25 C-37.19 82.92 -36.2 82.59 -35.18 82.25 C-35.18 81.59 -35.18 80.93 -35.18 80.25 C-36.17 80.25 -37.16 80.25 -38.18 80.25 Z M-43.18 88.25 C-43.18 89.24 -43.18 90.23 -43.18 91.25 C-42.19 90.92 -41.2 90.59 -40.18 90.25 C-40.18 89.59 -40.18 88.93 -40.18 88.25 C-41.17 88.25 -42.16 88.25 -43.18 88.25 Z M-54.18 165.25 C-54.18 166.24 -54.18 167.23 -54.18 168.25 C-53.52 167.92 -52.86 167.59 -52.18 167.25 C-52.18 166.59 -52.18 165.93 -52.18 165.25 C-52.84 165.25 -53.5 165.25 -54.18 165.25 Z M-68.18 175.25 C-68.18 176.24 -68.18 177.23 -68.18 178.25 C-67.52 177.92 -66.86 177.59 -66.18 177.25 C-66.84 176.59 -67.5 175.93 -68.18 175.25 Z M705.82 183.25 C706.82 185.25 706.82 185.25 706.82 185.25 Z M-368.18 198.25 C-367.18 200.25 -367.18 200.25 -367.18 200.25 Z M-373.18 203.25 C-373.51 204.24 -373.84 205.23 -374.18 206.25 C-373.19 206.25 -372.2 206.25 -371.18 206.25 C-371.18 205.26 -371.18 204.27 -371.18 203.25 C-371.84 203.25 -372.5 203.25 -373.18 203.25 Z M-378.18 209.25 C-378.18 209.91 -378.18 210.57 -378.18 211.25 C-377.52 210.92 -376.86 210.59 -376.18 210.25 C-376.84 209.92 -377.5 209.59 -378.18 209.25 Z M-383.18 215.25 C-381.7 216.24 -381.7 216.24 -380.18 217.25 C-380.18 216.59 -380.18 215.93 -380.18 215.25 C-381.17 215.25 -382.16 215.25 -383.18 215.25 Z M796.82 940.25 C796.82 941.24 796.82 942.23 796.82 943.25 C797.81 942.92 798.8 942.59 799.82 942.25 C799.49 941.59 799.16 940.93 798.82 940.25 C798.16 940.25 797.5 940.25 796.82 940.25 Z M791.82 948.25 C791.82 948.91 791.82 949.57 791.82 950.25 C790.83 950.75 790.83 950.75 789.82 951.25 C790.81 951.58 791.8 951.91 792.82 952.25 C793.48 950.93 794.14 949.61 794.82 948.25 C793.83 948.25 792.84 948.25 791.82 948.25 Z M784.82 958.25 C785.82 960.25 785.82 960.25 785.82 960.25 Z M786.82 958.25 C787.82 960.25 787.82 960.25 787.82 960.25 Z M780.82 963.25 C780.82 964.24 780.82 965.23 780.82 966.25 C781.48 965.59 782.14 964.93 782.82 964.25 C782.16 963.92 781.5 963.59 780.82 963.25 Z M775.82 968.25 C775.82 969.24 775.82 970.23 775.82 971.25 C776.48 970.59 777.14 969.93 777.82 969.25 C777.16 968.92 776.5 968.59 775.82 968.25 Z M761.82 978.25 C761.82 979.24 761.82 980.23 761.82 981.25 C762.48 980.92 763.14 980.59 763.82 980.25 C763.16 979.59 762.5 978.93 761.82 978.25 Z " fill="#000000" transform="translate(457.1821069717407,133.74831771850586)"/>
<path d="M0 0 C7.41 -0.02 14.81 -0.04 22.22 -0.05 C25.66 -0.06 29.1 -0.06 32.54 -0.08 C36.51 -0.09 40.47 -0.09 44.43 -0.1 C45.66 -0.1 46.88 -0.11 48.14 -0.11 C56.07 -0.11 63.78 0.19 71.56 1.88 C76.12 2.83 80.68 3.71 85.25 4.56 C85.92 4.69 86.6 4.82 87.29 4.95 C90.28 5.51 93.27 6.04 96.28 6.53 C99.6 7.1 102.76 8.07 106 9 C109.83 9.91 113.68 10.74 117.54 11.5 C118.35 11.67 119.16 11.83 120 12 C120.74 12.14 121.49 12.29 122.25 12.44 C123.12 12.72 123.12 12.72 124 13 C124.33 13.66 124.66 14.32 125 15 C126.59 15.48 128.18 15.96 129.79 16.38 C137.3 18.49 144.44 21.55 151.49 24.85 C153.2 25.63 154.92 26.37 156.67 27.06 C159.31 28.12 161.57 29.52 164 31 C168.9 33.56 173.94 35.78 179 38 C179 38.66 179 39.32 179 40 C180.32 40 181.64 40 183 40 C183.33 40.66 183.66 41.32 184 42 C186.02 43.13 186.02 43.13 188 44 C188 44.66 188 45.32 188 46 C190.31 46.33 192.62 46.66 195 47 C195.33 47.99 195.66 48.98 196 50 C197.86 51.23 197.86 51.23 200.06 52.19 C200.8 52.53 201.53 52.88 202.29 53.23 C202.85 53.48 203.42 53.74 204 54 C204 54.66 204 55.32 204 56 C204.74 56.29 205.49 56.58 206.25 56.88 C208.57 57.82 210.78 58.85 213 60 C213 60.99 213 61.98 213 63 C213.6 63.12 214.2 63.25 214.81 63.38 C217 64 217 64 220 66 C220.66 66.3 221.31 66.6 221.99 66.91 C224.28 68.15 225.53 69.49 227.19 71.5 C227.7 72.11 228.21 72.72 228.73 73.34 C230 75 230 75 231 77 C231.99 77.33 232.98 77.66 234 78 C234 78.66 234 79.32 234 80 C234.54 80.22 235.08 80.43 235.64 80.66 C238.82 82.46 241.21 84.92 243.75 87.5 C244.26 88 244.76 88.5 245.29 89.01 C249 92.75 249 92.75 249 95 C249.66 95 250.32 95 251 95 C252.52 96.5 252.52 96.5 254.25 98.56 C254.86 99.29 255.48 100.01 256.11 100.76 C256.74 101.5 257.36 102.24 258 103 C258.59 103.67 259.18 104.33 259.79 105.02 C260.61 105.94 260.61 105.94 261.44 106.88 C261.93 107.43 262.42 107.98 262.93 108.55 C264 110 264 110 264 112 C264.66 112 265.32 112 266 112 C266.39 112.89 266.78 113.77 267.19 114.69 C268.8 118.02 268.8 118.02 271.25 120.19 C275.27 124.3 277.99 129.11 281 134 C282.25 135.96 283.5 137.92 284.75 139.88 C286.89 143.22 288.96 146.59 291 150 C291.49 150.78 291.97 151.57 292.47 152.38 C296.5 159.03 299.97 165.86 303.31 172.88 C303.75 173.78 304.18 174.68 304.62 175.61 C307.21 181.09 309.33 186.45 310.88 192.31 C312 196.01 313.45 199.36 315.05 202.87 C316.79 206.78 317.91 210.38 318.5 214.62 C318.96 217.7 319.61 219.31 321 222 C321.33 224 321.67 226 322 228 C322.49 229.57 322.99 231.13 323.5 232.69 C324.93 237.26 325.46 241.58 325.69 246.36 C325.92 249.09 325.92 249.09 326.99 251.91 C328.08 255.26 328.37 258.18 328.56 261.69 C328.75 265.08 328.92 267.77 330 271 C330.09 272.94 330.13 274.88 330.13 276.82 C330.13 278.61 330.13 278.61 330.14 280.44 C330.14 281.73 330.13 283.02 330.13 284.35 C330.13 285.68 330.13 287.02 330.14 288.36 C330.14 291.15 330.14 293.95 330.13 296.75 C330.12 300.34 330.13 303.93 330.13 307.52 C330.14 310.28 330.14 313.04 330.13 315.8 C330.13 317.76 330.14 319.73 330.14 321.7 C330.14 322.89 330.13 324.09 330.13 325.31 C330.13 326.89 330.13 326.89 330.13 328.5 C330 331 330 331 329 333 C328.72 336.21 328.55 339.42 328.38 342.64 C328 346.02 327.1 348.79 326 352 C325.8 353.7 325.65 355.41 325.56 357.12 C324.92 365.46 322.78 373.27 319.68 381.01 C318.89 383.32 318.44 385.6 318 388 C316.94 393.7 315.18 398.73 312.51 403.86 C311.05 406.89 310.17 409.7 309.31 412.94 C307.33 419.66 304.32 425.42 300.9 431.49 C299.04 434.93 297.52 438.4 296 442 C295.19 443.56 294.36 445.1 293.5 446.62 C293.07 447.38 292.64 448.14 292.2 448.92 C290.83 451.3 289.42 453.65 288 456 C287.67 456.66 287.34 457.32 287 458 C286.34 458 285.68 458 285 458 C284.94 458.66 284.88 459.32 284.81 460 C283.7 464.12 281.66 467.66 279 471 C278.34 471 277.68 471 277 471 C276.74 471.55 276.48 472.1 276.22 472.67 C274.82 475.34 273.21 477.77 271.5 480.25 C270.89 481.14 270.28 482.03 269.66 482.95 C269.11 483.63 268.56 484.3 268 485 C267.34 485 266.68 485 266 485 C265.34 486.98 264.68 488.96 264 491 C263.34 491 262.68 491 262 491 C261.78 491.55 261.56 492.1 261.34 492.66 C259.24 496.32 256.11 498.97 253.08 501.85 C250.13 504.69 248.08 507.5 246 511 C245.34 511 244.68 511 244 511 C243.67 511.99 243.34 512.98 243 514 C242.34 514 241.68 514 241 514 C241 514.66 241 515.32 241 516 C239.57 517.19 239.57 517.19 237.56 518.56 C233.19 521.7 229.58 525.34 225.88 529.24 C224 531 224 531 222 531 C222 531.66 222 532.32 222 533 C221.11 533.39 220.23 533.78 219.31 534.19 C215.83 536.09 213.76 538.17 211 541 C204.73 546 204.73 546 202 546 C202 546.66 202 547.32 202 548 C199.8 549.48 199.8 549.48 196.75 551.19 C195.12 552.11 195.12 552.11 193.45 553.06 C192.31 553.7 191.17 554.34 190 555 C187.83 556.25 185.66 557.49 183.5 558.75 C182.54 559.3 181.58 559.85 180.59 560.42 C178.04 561.91 178.04 561.91 176 563.54 C173.63 565.27 171.23 566.38 168.56 567.56 C167.64 567.98 166.71 568.39 165.75 568.82 C161.5 570.65 157.58 572.21 153 573 C153 573.66 153 574.32 153 575 C152.32 575.27 151.64 575.54 150.94 575.81 C148.94 576.62 146.96 577.48 145 578.38 C140.51 580.32 135.83 581.62 131.15 583.02 C128.6 583.81 126.12 584.66 123.62 585.62 C116.42 588.36 109.01 589.92 101.5 591.5 C98.3 592.19 95.33 592.87 92.3 594.09 C89.6 595.16 87.26 595.38 84.38 595.56 C81.29 595.77 78.95 596.02 76 597 C72.65 597.31 69.29 597.51 65.93 597.72 C63.07 597.82 63.07 597.82 61 599 C51.96 600.46 42.67 600.15 33.54 600.13 C31.01 600.13 28.47 600.13 25.94 600.14 C7.74 600.15 7.74 600.15 1 599 C0.67 598.67 0.34 598.34 0 598 C-2.48 597.79 -4.95 597.62 -7.44 597.5 C-14.73 597.13 -14.73 597.13 -17 596 C-20.02 595.72 -23.03 595.55 -26.05 595.38 C-28.96 595 -30.43 594.29 -33 593 C-35.67 592.44 -38.31 591.94 -41 591.5 C-45.3 590.79 -49.12 590.07 -53 588 C-56.06 587.18 -59.13 586.48 -62.22 585.78 C-65 585 -65 585 -68 583 C-70.11 582.29 -72.24 581.63 -74.38 581 C-90.15 576.36 -107.63 569.01 -121.03 559.4 C-127.03 555.14 -133.6 551.62 -140 548 C-140 547.34 -140 546.68 -140 546 C-140.56 545.73 -141.13 545.46 -141.71 545.19 C-144.14 543.93 -146.4 542.51 -148.69 541 C-149.48 540.48 -150.26 539.97 -151.07 539.44 C-153 538 -153 538 -154 536 C-155.98 534.95 -157.97 533.95 -160 533 C-160 532.34 -160 531.68 -160 531 C-160.97 530.75 -161.94 530.5 -162.94 530.25 C-164.45 529.63 -164.45 529.63 -166 529 C-166.62 527 -166.62 527 -167 525 C-168.31 524.3 -169.65 523.64 -171 523 C-172.69 521.35 -174.35 519.69 -176 518 C-176.99 517.34 -177.98 516.68 -179 516 C-179 515.34 -179 514.68 -179 514 C-179.99 513.67 -180.98 513.34 -182 513 C-182 512.34 -182 511.68 -182 511 C-182.66 511 -183.32 511 -184 511 C-184.37 510.3 -184.74 509.6 -185.12 508.88 C-186.93 506.11 -188.12 505.04 -190.75 503.19 C-197.2 498.57 -201.66 493.2 -205 486 C-205.66 485.67 -206.32 485.34 -207 485 C-211 478.65 -211 478.65 -211 475 C-212.32 474.67 -213.64 474.34 -215 474 C-215 473.01 -215 472.02 -215 471 C-215.66 471 -216.32 471 -217 471 C-217.49 469.93 -217.49 469.93 -217.99 468.85 C-218.43 467.93 -218.86 467.01 -219.31 466.06 C-219.74 465.15 -220.17 464.23 -220.61 463.29 C-221.85 460.69 -221.85 460.69 -225 460 C-225.71 457.68 -226.37 455.34 -227 453 C-228.3 450.51 -229.42 448.53 -231.5 446.62 C-233.34 444.63 -234.11 442.46 -235.14 439.98 C-236.58 436.66 -238.28 433.47 -239.94 430.25 C-242.77 424.69 -245.19 419.17 -247.2 413.26 C-248.22 410.37 -249.58 407.71 -251 405 C-252.84 400.96 -254.16 397.34 -255 393 C-255.44 391.43 -255.9 389.87 -256.38 388.31 C-256.64 387.44 -256.91 386.56 -257.18 385.66 C-257.7 383.97 -258.23 382.28 -258.76 380.59 C-263.24 366.1 -265.62 351.39 -267.22 336.35 C-267.53 333.47 -267.85 330.64 -268.5 327.81 C-270.8 317.62 -270.21 307.19 -270.12 296.81 C-270.11 294.79 -270.11 292.77 -270.1 290.75 C-270.08 285.83 -270.04 280.92 -270 276 C-269.67 276 -269.34 276 -269 276 C-268.2 269.35 -267.69 262.72 -267.28 256.04 C-267 253 -267 253 -266 250 C-265.73 246.91 -265.56 243.81 -265.38 240.71 C-265 238 -265 238 -263 236 C-262.54 234.03 -262.54 234.03 -262.38 231.88 C-262.19 229.96 -262.19 229.96 -262 228 C-261.67 228 -261.34 228 -261 228 C-260.93 227.04 -260.93 227.04 -260.85 226.07 C-260.78 225.24 -260.7 224.41 -260.62 223.56 C-260.56 222.74 -260.49 221.92 -260.41 221.07 C-260.28 220.38 -260.14 219.7 -260 219 C-259.34 218.67 -258.68 218.34 -258 218 C-257.61 216.11 -257.61 216.11 -257.5 213.88 C-257.12 209.66 -256.41 205.99 -255 202 C-254.34 201.67 -253.68 201.34 -253 201 C-252.65 199 -252.31 197 -252 195 C-251.34 193.66 -250.67 192.33 -250 191 C-249.52 189.53 -249.06 188.05 -248.62 186.56 C-247.36 182.64 -245.61 180.2 -243 177 C-242.26 174.69 -241.59 172.35 -241 170 C-240.36 168.32 -239.7 166.65 -239 165 C-238.34 165 -237.68 165 -237 165 C-236.88 164.28 -236.75 163.56 -236.62 162.81 C-236.01 160.04 -235.12 157.6 -234 155 C-233.34 155 -232.68 155 -232 155 C-231.67 154.01 -231.34 153.02 -231 152 C-230.26 150.79 -230.26 150.79 -229.5 149.56 C-228.17 147.28 -227.48 145.57 -227 143 C-226.34 143 -225.68 143 -225 143 C-225 142.01 -225 141.02 -225 140 C-224.01 140 -223.02 140 -222 140 C-222.04 139.22 -222.08 138.43 -222.12 137.62 C-222 135 -222 135 -220 133 C-219.67 132.34 -219.34 131.68 -219 131 C-217.43 128.82 -215.9 126.9 -214 125 C-212.06 122.6 -210.99 120.96 -210 118 C-209.34 117.67 -208.68 117.34 -208 117 C-207.01 115.51 -207.01 115.51 -206 114 C-195.05 98.97 -195.05 98.97 -188.81 95.94 C-186.86 95.17 -186.86 95.17 -186.23 93.3 C-184.52 90.1 -182.06 87.77 -179.5 85.25 C-179 84.74 -178.5 84.24 -177.99 83.71 C-174.25 80 -174.25 80 -172 80 C-172 79.01 -172 78.02 -172 77 C-170.5 75.39 -170.5 75.39 -168.44 73.69 C-167.35 72.78 -167.35 72.78 -166.24 71.85 C-165.5 71.24 -164.76 70.63 -164 70 C-162.71 68.88 -161.41 67.75 -160.12 66.62 C-157.46 64.3 -155.4 63.13 -152 62 C-152 61.34 -152 60.68 -152 60 C-150.31 59.09 -148.61 58.18 -146.92 57.27 C-144.89 56.03 -144.89 56.03 -143.11 54.06 C-140.73 51.74 -138.37 50.37 -135.44 48.81 C-134.49 48.3 -133.54 47.79 -132.56 47.27 C-130 46 -130 46 -127 45 C-126.67 44.01 -126.34 43.02 -126 42 C-125.01 42 -124.02 42 -123 42 C-122.67 41.34 -122.34 40.68 -122 40 C-117.63 37.33 -112.89 35.47 -108 34 C-108 33.34 -108 32.68 -108 32 C-107.42 31.88 -106.85 31.75 -106.25 31.62 C-103.95 30.99 -102.06 30.21 -100 29 C-99.67 28.34 -99.34 27.68 -99 27 C-97.35 26.61 -95.67 26.29 -94 26 C-91.66 25.35 -89.33 24.68 -87 24 C-87 23.34 -87 22.68 -87 22 C-86.23 21.8 -85.46 21.59 -84.66 21.38 C-83.66 21.11 -82.66 20.84 -81.62 20.56 C-80.63 20.3 -79.63 20.03 -78.6 19.75 C-76.05 19.1 -76.05 19.1 -74 18 C-74 17.67 -74 17.34 -74 17 C-71.69 16.67 -69.38 16.34 -67 16 C-67 15.67 -67 15.34 -67 15 C-63.53 14.5 -63.53 14.5 -60 14 C-60 13.34 -60 12.68 -60 12 C-55.55 11.5 -55.55 11.5 -51 11 C-51 10.67 -51 10.34 -51 10 C-46.55 9.5 -46.55 9.5 -42 9 C-42 8.34 -42 7.68 -42 7 C-37.05 6.5 -37.05 6.5 -32 6 C-32 5.67 -32 5.34 -32 5 C-31.01 4.95 -30.03 4.9 -29.01 4.85 C-27.73 4.78 -26.45 4.7 -25.12 4.62 C-23.21 4.52 -23.21 4.52 -21.26 4.41 C-17.92 4.33 -17.92 4.33 -16 2 C-13.27 1.69 -10.62 1.49 -7.88 1.38 C-7.12 1.34 -6.37 1.3 -5.59 1.26 C-3.73 1.16 -1.86 1.08 0 1 C0 0.67 0 0.34 0 0 Z M26 68 C24.13 68.2 22.26 68.35 20.39 68.46 C19.25 68.54 18.11 68.62 16.93 68.7 C15.72 68.78 14.5 68.86 13.25 68.94 C-2.37 69.42 -2.37 69.42 -17.41 72.98 C-20.61 74.24 -23.74 74.77 -27.12 75.38 C-35.11 76.88 -42.41 79.38 -49.81 82.69 C-52.92 83.97 -55.68 84.59 -59 85 C-59 85.66 -59 86.32 -59 87 C-59.67 87.09 -60.34 87.18 -61.03 87.28 C-64.8 88.19 -68.07 89.81 -71.5 91.56 C-72.2 91.92 -72.9 92.27 -73.62 92.63 C-80.32 96.06 -86.65 99.96 -93 104 C-95.65 105.63 -98.17 107.08 -101 108.38 C-104.34 110.19 -106.35 112.29 -109 115 C-112.32 117.64 -115.76 120.14 -119.25 122.55 C-119.82 123.03 -120.4 123.51 -121 124 C-121 124.66 -121 125.32 -121 126 C-121.66 126 -122.32 126 -123 126 C-123 126.66 -123 127.32 -123 128 C-123.56 128.27 -124.11 128.54 -124.69 128.81 C-127.21 130.11 -129.64 131.42 -132 133 C-132 133.66 -132 134.32 -132 135 C-132.87 135.31 -132.87 135.31 -133.75 135.62 C-137.67 138.02 -139.58 141.73 -141 146 C-141.66 146 -142.32 146 -143 146 C-149.63 152.42 -154.94 160.33 -160 168 C-161.19 169.67 -162.37 171.33 -163.56 173 C-166.07 176.56 -168.12 180.07 -170 184 C-170.78 185.26 -171.57 186.51 -172.38 187.75 C-177.63 195.39 -177.63 195.39 -180 204 C-180.66 204.33 -181.32 204.66 -182 205 C-185.26 212.04 -187.55 219.42 -189.32 226.95 C-189.55 227.63 -189.77 228.3 -190 229 C-190.66 229.33 -191.32 229.66 -192 230 C-192.59 231.98 -192.59 231.98 -192.94 234.38 C-193.61 238.12 -194.44 241.72 -195.5 245.38 C-196.93 250.43 -197.81 255.47 -198.57 260.66 C-199 263 -199 263 -200 264 C-200.21 266.1 -200.37 268.21 -200.5 270.31 C-200.89 276.6 -200.89 276.6 -201.51 278.93 C-202.03 281.12 -202.13 283.02 -202.13 285.26 C-202.13 286.09 -202.14 286.92 -202.14 287.78 C-202.14 288.67 -202.13 289.56 -202.13 290.47 C-202.13 291.39 -202.13 292.31 -202.14 293.26 C-202.14 295.2 -202.13 297.14 -202.13 299.08 C-202.13 302.05 -202.13 305.03 -202.14 308 C-202.14 309.89 -202.13 311.77 -202.13 313.66 C-202.13 314.55 -202.14 315.44 -202.14 316.36 C-202.14 317.19 -202.13 318.01 -202.13 318.87 C-202.13 319.59 -202.13 320.32 -202.13 321.07 C-202.07 323.22 -202.07 323.22 -201 326 C-200.73 329.22 -200.56 332.45 -200.38 335.68 C-199.99 339.04 -199.13 341.82 -198 345 C-197.63 346.62 -197.3 348.24 -197 349.88 C-196.41 352.94 -195.78 355.98 -195 359 C-193.81 363.63 -192.9 368.31 -192 373 C-191.34 373 -190.68 373 -190 373 C-189.84 373.72 -189.68 374.43 -189.52 375.17 C-187.22 384.98 -184.25 394.36 -179 403 C-177.69 405.56 -176.44 408.16 -175.19 410.75 C-172.51 416.21 -169.7 421.35 -166.13 426.3 C-165 428 -165 428 -164 431 C-163.24 431.76 -162.47 432.53 -161.69 433.31 C-158.97 436.03 -157.04 438.76 -155 442 C-154.34 442.99 -153.68 443.98 -153 445 C-152.34 445 -151.68 445 -151 445 C-150.9 445.6 -150.79 446.2 -150.69 446.81 C-149.9 449.31 -149.03 450.38 -147 452 C-146.34 452 -145.68 452 -145 452 C-144.34 453.65 -143.68 455.3 -143 457 C-142.34 457 -141.68 457 -141 457 C-140.77 457.56 -140.55 458.11 -140.31 458.69 C-138.62 461.67 -136.48 463.64 -134 466 C-133.49 466.55 -132.97 467.09 -132.45 467.65 C-131.02 469.16 -129.51 470.58 -128 472 C-127.01 472 -126.02 472 -125 472 C-124.5 473.49 -124.5 473.49 -124 475 C-123.34 475 -122.68 475 -122 475 C-122 475.66 -122 476.32 -122 477 C-121.34 477.66 -120.68 478.32 -120 479 C-119.67 479.66 -119.34 480.32 -119 481 C-117.01 482.08 -114.97 482.98 -112.91 483.9 C-111 485 -111 485 -109 488 C-106.67 489.54 -104.35 490.84 -101.81 492 C-100 493 -100 493 -98 496 C-95.36 497.62 -94.16 498 -91 498 C-91 498.66 -91 499.32 -91 500 C-89.68 500 -88.36 500 -87 500 C-86.5 501.49 -86.5 501.49 -86 503 C-83.49 504.56 -83.49 504.56 -80.44 505.94 C-79.35 506.46 -78.27 506.98 -77.15 507.51 C-76.11 508 -75.07 508.49 -74 509 C-72.52 509.75 -71.04 510.49 -69.56 511.25 C-66.72 512.64 -63.94 513.85 -61 515 C-59.31 515.67 -57.62 516.33 -55.94 517 C-55.1 517.33 -54.26 517.66 -53.4 518 C-51 519 -51 519 -48.88 520.07 C-46.73 521.13 -44.56 521.74 -42.26 522.36 C-38.2 523.51 -34.2 524.82 -30.18 526.1 C-27.12 526.97 -24.14 527.48 -21 528 C-19.88 528.33 -18.76 528.66 -17.6 529 C-6.46 532.1 5.63 532.26 17.13 532.66 C18.41 532.71 18.41 532.71 19.71 532.75 C20.47 532.78 21.22 532.8 22 532.83 C24 533 24 533 27 534 C28.39 534.07 29.79 534.09 31.19 534.06 C33.07 534.03 33.07 534.03 35 534 C35 533.67 35 533.34 35 533 C44.24 532.67 53.48 532.34 63 532 C63 531.67 63 531.34 63 531 C64.06 530.95 65.12 530.9 66.21 530.85 C67.6 530.78 68.99 530.7 70.38 530.62 C71.42 530.58 71.42 530.58 72.49 530.53 C76.7 530.41 76.7 530.41 80 528 C82.16 527.59 82.16 527.59 84.62 527.38 C85.85 527.26 85.85 527.26 87.1 527.15 C87.73 527.1 88.35 527.05 89 527 C89 526.67 89 526.34 89 526 C90.18 525.73 91.35 525.46 92.56 525.19 C96.58 524.19 100.2 522.66 104 521 C106.99 520.09 109.95 519.23 113 518.56 C116.83 517.49 120.45 515.78 124 514 C126.94 512.53 129.98 511.29 133 510 C135.6 508.81 136.96 508.04 139 506 C139.68 505.84 140.36 505.67 141.06 505.5 C141.7 505.34 142.34 505.17 143 505 C143.33 504.34 143.66 503.68 144 503 C146.06 502.38 146.06 502.38 148 502 C148 501.34 148 500.68 148 500 C148.58 499.88 149.15 499.75 149.75 499.62 C152.02 498.99 153.93 498.11 156 497 C156 496.34 156 495.68 156 495 C157.65 494.67 159.3 494.34 161 494 C161 493.34 161 492.68 161 492 C161.55 491.74 162.1 491.48 162.66 491.21 C165.35 489.82 167.88 488.25 170.44 486.62 C171.36 486.04 172.29 485.45 173.25 484.85 C177.14 482.24 180.71 479.68 183.5 475.88 C186.14 472.84 187.38 472.38 191 471 C196.09 467.4 199.56 463.13 203 458 C204.01 456.58 205.03 455.16 206.06 453.75 C206.53 453.11 206.99 452.46 207.47 451.8 C209 450 209 450 211.05 448.48 C213.09 446.93 213.92 445.76 215.06 443.5 C216.19 441.37 217 440 218.75 438.31 C220.46 436.82 220.46 436.82 220 433 C220.99 433 221.98 433 223 433 C224.36 431.67 224.36 431.67 225.5 429.88 C225.93 429.24 226.36 428.6 226.8 427.95 C228.38 425.38 229.68 422.7 231 420 C231.66 419.34 232.32 418.68 233 418 C233.31 417.2 233.62 416.39 233.94 415.56 C235 413 235 413 236.46 411.59 C238.21 409.78 238.85 408.3 239.69 405.94 C239.94 405.25 240.19 404.55 240.45 403.84 C241.1 402 241.1 402 241 400 C241.66 400 242.32 400 243 400 C243.25 399.05 243.5 398.1 243.75 397.12 C245.34 391.55 247.46 386.07 250.06 380.89 C251.12 378.86 251.12 378.86 252 376 C252.33 375.01 252.66 374.02 253 373 C253.16 372.17 253.33 371.35 253.5 370.5 C254 368 254 368 255 365 C255.14 364.03 255.29 363.06 255.44 362.06 C256 359 256 359 257 357.06 C258.42 354.14 258.63 351.21 259 348 C259.33 348 259.66 348 260 348 C260.05 346.89 260.1 345.78 260.15 344.64 C260.22 343.18 260.3 341.71 260.38 340.25 C260.41 339.52 260.44 338.79 260.47 338.04 C260.77 332.43 260.77 332.43 262.01 330.08 C263.22 327.53 263.25 325.69 263.26 322.87 C263.27 321.34 263.27 321.34 263.28 319.77 C263.27 318.67 263.27 317.58 263.27 316.45 C263.27 315.31 263.27 314.18 263.27 313.01 C263.27 310.61 263.27 308.21 263.26 305.81 C263.25 302.15 263.26 298.48 263.27 294.82 C263.27 292.48 263.27 290.15 263.27 287.82 C263.27 286.18 263.27 286.18 263.28 284.51 C263.25 279.24 263.03 274.94 261 270 C260.79 268.05 260.65 266.09 260.56 264.12 C260.21 258.83 258.99 254.88 257 250 C257.33 249.34 257.66 248.68 258 248 C257.27 246.02 256.54 244.05 255.76 242.09 C254.79 239.44 254.43 236.78 254 234 C253.36 232.32 252.7 230.65 252 229 C251.84 228.37 251.69 227.73 251.52 227.08 C250.84 224.36 249.81 221.79 248.8 219.18 C248.05 217.13 247.43 215.09 246.81 213 C244.64 206.35 241.22 200.21 238.03 194.01 C236.62 191.26 235.25 188.49 233.89 185.72 C232.79 183.6 231.61 181.76 230 180 C229.34 180 228.68 180 228 180 C227.88 179.07 227.75 178.14 227.62 177.19 C227.18 173.86 227.18 173.86 225 171 C224.34 171 223.68 171 223 171 C222.34 169.02 221.68 167.04 221 165 C220.01 165 219.02 165 218 165 C217.9 164.44 217.79 163.89 217.69 163.31 C216.84 160.48 215.74 158.39 214 156 C211.91 155.12 211.91 155.12 210 155 C209.9 154.4 209.79 153.8 209.69 153.19 C208.9 150.69 207.9 149.74 206 148 C205.67 147.34 205.34 146.68 205 146 C204.34 146 203.68 146 203 146 C202.73 145.44 202.46 144.89 202.19 144.31 C199.26 138.49 199.26 138.49 194 135 C192.67 133.67 191.33 132.33 190 131 C189.34 131 188.68 131 188 131 C188 130.34 188 129.68 188 129 C186.35 127.55 186.35 127.55 184.25 126.12 C181.22 123.93 178.6 121.69 176 119 C172.91 115.99 172.91 115.99 169 115 C169 114.34 169 113.68 169 113 C167.02 112.34 165.04 111.68 163 111 C163 110.34 163 109.68 163 109 C160.99 107.54 160.99 107.54 158.44 106.12 C157.52 105.59 156.61 105.06 155.67 104.52 C154.1 103.63 152.53 102.74 150.95 101.86 C148.24 100.35 145.79 98.83 143.38 96.88 C140.92 94.94 138.91 94.11 136 93 C134.1 92.21 132.21 91.42 130.31 90.62 C128.21 89.75 126.1 88.87 124 88 C123.04 87.6 122.09 87.2 121.1 86.79 C119.78 86.24 119.78 86.24 118.44 85.69 C117.65 85.36 116.87 85.04 116.06 84.7 C113.89 83.84 113.89 83.84 111 84 C111 83.34 111 82.68 111 82 C101.05 78.58 91.09 75.56 80.78 73.43 C79 73 79 73 77 72 C75.19 71.8 73.38 71.63 71.56 71.5 C68.44 71.27 65.99 71 63 70 C61.02 69.79 59.03 69.63 57.05 69.5 C55.28 69.38 55.28 69.38 53.48 69.25 C52.25 69.17 51.02 69.08 49.75 69 C35.3 68.02 35.3 68.02 29 67 C27.78 66.93 27.78 66.93 26 68 Z M-110 110 C-110 110.66 -110 111.32 -110 112 C-110.66 112 -111.32 112 -112 112 C-112 112.99 -112 113.98 -112 115 C-110.68 114.34 -109.36 113.68 -108 113 C-108.66 112.01 -109.32 111.02 -110 110 Z M-127 125 C-127 125.99 -127 126.98 -127 128 C-126.01 127.67 -125.02 127.34 -124 127 C-124.33 126.34 -124.66 125.68 -125 125 C-125.66 125 -126.32 125 -127 125 Z M-142 140 C-141 142 -141 142 -141 142 Z M-140 140 C-139 142 -139 142 -139 142 Z M-157 157 C-157 157.99 -157 158.98 -157 160 C-156.01 159.67 -155.02 159.34 -154 159 C-154 158.34 -154 157.68 -154 157 C-154.99 157 -155.98 157 -157 157 Z M-162 165 C-161 167 -161 167 -161 167 Z M-160 165 C-159 167 -159 167 -159 167 Z M-172 180 C-171 182 -171 182 -171 182 Z M-170 180 C-169 182 -169 182 -169 182 Z M-200 342 C-200.33 342.66 -200.66 343.32 -201 344 C-200.34 344 -199.68 344 -199 344 C-199.33 343.34 -199.66 342.68 -200 342 Z M288 447 C288 447.99 288 448.98 288 450 C288.99 449.67 289.98 449.34 291 449 C291 448.34 291 447.68 291 447 C290.01 447 289.02 447 288 447 Z M280 460 C280 460.99 280 461.98 280 463 C280.99 462.67 281.98 462.34 283 462 C283 461.34 283 460.68 283 460 C282.01 460 281.02 460 280 460 Z M275 467 C275.33 467.99 275.66 468.98 276 470 C276.66 469.67 277.32 469.34 278 469 C278 468.34 278 467.68 278 467 C277.01 467 276.02 467 275 467 Z M269 477 C269.66 477.66 270.32 478.32 271 479 C271 478.34 271 477.68 271 477 C270.34 477 269.68 477 269 477 Z M265 480 C265 480.99 265 481.98 265 483 C265.66 482.67 266.32 482.34 267 482 C266.34 481.34 265.68 480.68 265 480 Z M260 487 C260.33 487.99 260.66 488.98 261 490 C261.66 489.67 262.32 489.34 263 489 C263 488.34 263 487.68 263 487 C262.01 487 261.02 487 260 487 Z M243 507 C243.33 507.99 243.66 508.98 244 510 C244.66 509.67 245.32 509.34 246 509 C246 508.34 246 507.68 246 507 C245.01 507 244.02 507 243 507 Z M240 510 C240 510.99 240 511.98 240 513 C240.99 512.67 241.98 512.34 243 512 C242.67 511.34 242.34 510.68 242 510 C241.34 510 240.68 510 240 510 Z M210 535 C210 535.66 210 536.32 210 537 C209.34 537 208.68 537 208 537 C208 537.99 208 538.98 208 540 C209.32 539.34 210.64 538.68 212 538 C211.34 537.01 210.68 536.02 210 535 Z M185 552 C185 552.99 185 553.98 185 555 C185.99 554.67 186.98 554.34 188 554 C188 553.34 188 552.68 188 552 C187.01 552 186.02 552 185 552 Z " fill="#000000" transform="translate(609,397)"/>
<path d="M0 0 C0.99 0 1.98 0 3 0 C9.89 1.31 15.35 2.87 21 7 C23.73 7.78 23.73 7.78 26 8 C26.49 9.49 26.49 9.49 27 11 C28.66 12.01 30.33 13.01 32 14 C32 14.66 32 15.32 32 16 C32.64 16.27 33.28 16.54 33.94 16.81 C36 18 36 18 37 21 C37.66 21 38.32 21 39 21 C44 28.5 44 28.5 44 32 C45.48 32.5 45.48 32.5 47 33 C48.06 35.69 48.06 35.69 49 39 C49.5 40.31 49.5 40.31 50.02 41.64 C51.24 45.83 51.5 49.78 51.69 54.12 C51.72 54.97 51.76 55.81 51.8 56.68 C52.36 71.72 49.88 83.52 41 96 C40.34 96 39.68 96 39 96 C38.34 97.98 37.68 99.96 37 102 C36.34 102 35.68 102 35 102 C34.51 103.49 34.51 103.49 34 105 C28.63 109 28.63 109 26 109 C26 109.66 26 110.32 26 111 C19.58 115.02 13.5 117.27 6.12 118.88 C5.21 119.1 4.29 119.32 3.35 119.55 C-3.26 121.04 -9.32 121.24 -16 120 C-16.33 119.67 -16.66 119.34 -17 119 C-18.3 118.9 -19.6 118.79 -20.94 118.69 C-26.41 118.14 -31.04 116.29 -36 114 C-37.44 113.34 -37.44 113.34 -38.91 112.67 C-42.33 110.82 -45.24 108.62 -48.19 106.12 C-48.97 105.49 -48.97 105.49 -49.76 104.85 C-52.94 102.19 -55.05 99.64 -57 96 C-57.52 95.32 -58.03 94.64 -58.56 93.94 C-60.44 91.4 -62 89.21 -62 86 C-62.66 86 -63.32 86 -64 86 C-64 85.01 -64 84.02 -64 83 C-64.66 82.67 -65.32 82.34 -66 82 C-65.96 81.26 -65.92 80.51 -65.88 79.75 C-65.81 77.06 -65.81 77.06 -66.94 75.12 C-69.55 69.9 -69.16 63.55 -69.12 57.81 C-69.13 57.11 -69.13 56.42 -69.14 55.7 C-69.13 52.31 -69.01 49.24 -68 46 C-67.86 45.13 -67.71 44.27 -67.56 43.38 C-67 41 -67 41 -65 39 C-64.35 36.43 -64.35 36.43 -64 34 C-63.34 34 -62.68 34 -62 34 C-62 32.35 -62 30.7 -62 29 C-61.34 28.67 -60.68 28.34 -60 28 C-59.48 27.01 -58.97 26.02 -58.44 25 C-54.53 17.91 -48.43 12.18 -41 9 C-40.46 8.44 -39.93 7.89 -39.38 7.31 C-38 6 -38 6 -34 6 C-33.67 5.01 -33.34 4.02 -33 3 C-29.54 2.5 -29.54 2.5 -26 2 C-26 1.67 -26 1.34 -26 1 C-8.39 -1.45 -8.39 -1.45 0 0 Z M43 83 C44.48 83.99 44.48 83.99 46 85 C46 84.34 46 83.68 46 83 C45.01 83 44.02 83 43 83 Z M33 98 C33.33 98.99 33.66 99.98 34 101 C34.66 100.67 35.32 100.34 36 100 C36 99.34 36 98.68 36 98 C35.01 98 34.02 98 33 98 Z M32 101 C31.67 101.99 31.34 102.98 31 104 C31.99 103.67 32.98 103.34 34 103 C33.34 102.34 32.68 101.68 32 101 Z " fill="#000000" transform="translate(1081,396)"/>
<path d="M0 0 C0.33 0 0.66 0 1 0 C1 201.96 1 403.92 1 612 C0.67 612 0.34 612 0 612 C0 410.04 0 208.08 0 0 Z " fill="#FDFDFD" transform="translate(65,391)"/>
<path d="M0 0 C121.77 0 243.54 0 369 0 C369 0.33 369 0.66 369 1 C247.23 1 125.46 1 0 1 C0 0.67 0 0.34 0 0 Z " fill="#FDFDFD" transform="translate(457,200)"/>
<path d="M0 0 C0.33 0 0.66 0 1 0 C1 2.31 1 4.62 1 7 C0.67 7 0.34 7 0 7 C0 4.69 0 2.38 0 0 Z " fill="#FDFDFD" transform="translate(940,694)"/>
<path d="M0 0 C1.98 0 3.96 0 6 0 C6 0.33 6 0.66 6 1 C4.02 1 2.04 1 0 1 C0 0.67 0 0.34 0 0 Z " fill="#FDFDFD" transform="translate(603,995)"/>
<path d="M0 0 C1.65 0 3.3 0 5 0 C5 0.33 5 0.66 5 1 C3.35 1 1.7 1 0 1 C0 0.67 0 0.34 0 0 Z " fill="#FDFDFD" transform="translate(1059,515)"/>
<path d="M0 0 C4 1 4 1 4 1 Z " fill="#FDFDFD" transform="translate(672,995)"/>
<path d="M0 0 C4 1 4 1 4 1 Z " fill="#000000" transform="translate(636,929)"/>
<path d="M0 0 C1 4 1 4 1 4 Z " fill="#FDFDFD" transform="translate(410,661)"/>
<path d="M0 0 C4 1 4 1 4 1 Z " fill="#FDFDFD" transform="translate(382,315)"/>
<path d="M0 0 C0.99 0.5 0.99 0.5 2 1 C1.01 1.5 1.01 1.5 0 2 C0 1.34 0 0.68 0 0 Z " fill="#000000" transform="translate(800,864)"/>
<path d="" fill="#FDFDFD" transform="translate(0,0)"/>
<path d="" fill="#FDFDFD" transform="translate(0,0)"/>
<path d="" fill="#FDFDFD" transform="translate(0,0)"/>
<path d="M0 0 C3 1 3 1 3 1 Z " fill="#FDFDFD" transform="translate(1084,515)"/>
<path d="M0 0 C0.99 0.5 0.99 0.5 2 1 C1.01 1.5 1.01 1.5 0 2 C0 1.34 0 0.68 0 0 Z " fill="#000000" transform="translate(424,485)"/>
<path d="M0 0 C3 1 3 1 3 1 Z " fill="#FDFDFD" transform="translate(895,315)"/>
<path d="M0 0 C2 1 2 1 2 1 Z " fill="#FDFDFD" transform="translate(109,1140)"/>
<path d="" fill="#000000" transform="translate(0,0)"/>
<path d="M0 0 C2 1 2 1 2 1 Z " fill="#FDFDFD" transform="translate(574,990)"/>
<path d="" fill="#000000" transform="translate(0,0)"/>
<path d="M0 0 C2 1 2 1 2 1 Z " fill="#FDFDFD" transform="translate(704,475)"/>
<path d="M0 0 C2 1 2 1 2 1 Z " fill="#FDFDFD" transform="translate(684,470)"/>
<path d="" fill="#FDFDFD" transform="translate(0,0)"/>
<path d="" fill="#000000" transform="translate(0,0)"/>
<path d="" fill="#000000" transform="translate(0,0)"/>
<path d="" fill="#7D7C7B" transform="translate(0,0)"/>
<path d="" fill="#7D7C7B" transform="translate(0,0)"/>
<path d="" fill="#000000" transform="translate(0,0)"/>
<path d="" fill="#7D7C7B" transform="translate(0,0)"/>
<path d="" fill="#7D7C7B" transform="translate(0,0)"/>
<path d="" fill="#000000" transform="translate(0,0)"/>
<path d="" fill="#000000" transform="translate(0,0)"/>
<path d="" fill="#000000" transform="translate(0,0)"/>
<path d="" fill="#000000" transform="translate(0,0)"/>
<path d="" fill="#000000" transform="translate(0,0)"/>
<path d="" fill="#000000" transform="translate(0,0)"/>
<path d="" fill="#000000" transform="translate(0,0)"/>
<path d="" fill="#000000" transform="translate(0,0)"/>
<path d="" fill="#000000" transform="translate(0,0)"/>
<path d="" fill="#000000" transform="translate(0,0)"/>
<path d="" fill="#000000" transform="translate(0,0)"/>
<path d="" fill="#000000" transform="translate(0,0)"/>
<path d="" fill="#000000" transform="translate(0,0)"/>
<path d="" fill="#000000" transform="translate(0,0)"/>
<path d="" fill="#000000" transform="translate(0,0)"/>
<path d="" fill="#000000" transform="translate(0,0)"/>
<path d="" fill="#FDFDFD" transform="translate(0,0)"/>
<path d="" fill="#FDFDFD" transform="translate(0,0)"/>
<path d="" fill="#FDFDFD" transform="translate(0,0)"/>
<path d="" fill="#FDFDFD" transform="translate(0,0)"/>
<path d="" fill="#7D7C7B" transform="translate(0,0)"/>
<path d="" fill="#7D7C7B" transform="translate(0,0)"/>
<path d="" fill="#000000" transform="translate(0,0)"/>
<path d="" fill="#000000" transform="translate(0,0)"/>
<path d="" fill="#000000" transform="translate(0,0)"/>
<path d="" fill="#000000" transform="translate(0,0)"/>
<path d="" fill="#000000" transform="translate(0,0)"/>
<path d="" fill="#000000" transform="translate(0,0)"/>
<path d="" fill="#7D7C7B" transform="translate(0,0)"/>
<path d="" fill="#000000" transform="translate(0,0)"/>
<path d="" fill="#7D7C7B" transform="translate(0,0)"/>
<path d="" fill="#000000" transform="translate(0,0)"/>
<path d="" fill="#000000" transform="translate(0,0)"/>
<path d="" fill="#000000" transform="translate(0,0)"/>
<path d="" fill="#000000" transform="translate(0,0)"/>
<path d="" fill="#000000" transform="translate(0,0)"/>
<path d="" fill="#7D7C7B" transform="translate(0,0)"/>
<path d="" fill="#000000" transform="translate(0,0)"/>
<path d="" fill="#000000" transform="translate(0,0)"/>
<path d="" fill="#000000" transform="translate(0,0)"/>
<path d="" fill="#000000" transform="translate(0,0)"/>
<path d="" fill="#000000" transform="translate(0,0)"/>
<path d="" fill="#000000" transform="translate(0,0)"/>
<path d="" fill="#000000" transform="translate(0,0)"/>
<path d="" fill="#7D7C7B" transform="translate(0,0)"/>
<path d="" fill="#000000" transform="translate(0,0)"/>
<path d="" fill="#000000" transform="translate(0,0)"/>
<path d="" fill="#000000" transform="translate(0,0)"/>
<path d="" fill="#7D7C7B" transform="translate(0,0)"/>
<path d="" fill="#000000" transform="translate(0,0)"/>
<path d="" fill="#000000" transform="translate(0,0)"/>
<path d="" fill="#000000" transform="translate(0,0)"/>
<path d="" fill="#000000" transform="translate(0,0)"/>
<path d="" fill="#000000" transform="translate(0,0)"/>
<path d="" fill="#7D7C7B" transform="translate(0,0)"/>
<path d="" fill="#000000" transform="translate(0,0)"/>
<path d="" fill="#000000" transform="translate(0,0)"/>
<path d="" fill="#000000" transform="translate(0,0)"/>
<path d="" fill="#000000" transform="translate(0,0)"/>
<path d="" fill="#000000" transform="translate(0,0)"/>
<path d="" fill="#000000" transform="translate(0,0)"/>
<path d="" fill="#000000" transform="translate(0,0)"/>
<path d="" fill="#000000" transform="translate(0,0)"/>
<path d="" fill="#000000" transform="translate(0,0)"/>
<path d="" fill="#000000" transform="translate(0,0)"/>
<path d="" fill="#FDFDFD" transform="translate(0,0)"/>
<path d="" fill="#000000" transform="translate(0,0)"/>
<path d="" fill="#000000" transform="translate(0,0)"/>
<path d="" fill="#000000" transform="translate(0,0)"/>
<path d="" fill="#000000" transform="translate(0,0)"/>
<path d="" fill="#000000" transform="translate(0,0)"/>
<path d="" fill="#000000" transform="translate(0,0)"/>
<path d="" fill="#FDFDFD" transform="translate(0,0)"/>
<path d="" fill="#FDFDFD" transform="translate(0,0)"/>
<path d="" fill="#FDFDFD" transform="translate(0,0)"/>
<path d="" fill="#000000" transform="translate(0,0)"/>
<path d="" fill="#000000" transform="translate(0,0)"/>
<path d="" fill="#FDFDFD" transform="translate(0,0)"/>
<path d="" fill="#000000" transform="translate(0,0)"/>
<path d="" fill="#7D7C7B" transform="translate(0,0)"/>
<path d="" fill="#000000" transform="translate(0,0)"/>
<path d="" fill="#7D7C7B" transform="translate(0,0)"/>
<path d="" fill="#000000" transform="translate(0,0)"/>
<path d="" fill="#000000" transform="translate(0,0)"/>
<path d="" fill="#7D7C7B" transform="translate(0,0)"/>
<path d="" fill="#000000" transform="translate(0,0)"/>
<path d="" fill="#000000" transform="translate(0,0)"/>
<path d="" fill="#000000" transform="translate(0,0)"/>
<path d="" fill="#7D7C7B" transform="translate(0,0)"/>
<path d="" fill="#000000" transform="translate(0,0)"/>
<path d="" fill="#000000" transform="translate(0,0)"/>
<path d="" fill="#7D7C7B" transform="translate(0,0)"/>
<path d="" fill="#FDFDFD" transform="translate(0,0)"/>
<path d="" fill="#000000" transform="translate(0,0)"/>
<path d="" fill="#000000" transform="translate(0,0)"/>
<path d="" fill="#000000" transform="translate(0,0)"/>
<path d="" fill="#000000" transform="translate(0,0)"/>
<path d="" fill="#000000" transform="translate(0,0)"/>
<path d="" fill="#000000" transform="translate(0,0)"/>
<path d="" fill="#000000" transform="translate(0,0)"/>
<path d="" fill="#FDFDFD" transform="translate(0,0)"/>
<path d="" fill="#000000" transform="translate(0,0)"/>
<path d="" fill="#000000" transform="translate(0,0)"/>
<path d="" fill="#000000" transform="translate(0,0)"/>
<path d="" fill="#000000" transform="translate(0,0)"/>
<path d="" fill="#FDFDFD" transform="translate(0,0)"/>
<path d="" fill="#FDFDFD" transform="translate(0,0)"/>
<path d="" fill="#000000" transform="translate(0,0)"/>
<path d="" fill="#000000" transform="translate(0,0)"/>
<path d="" fill="#000000" transform="translate(0,0)"/>
<path d="" fill="#FDFDFD" transform="translate(0,0)"/>
<path d="" fill="#FDFDFD" transform="translate(0,0)"/>
<path d="" fill="#000000" transform="translate(0,0)"/>
<path d="" fill="#000000" transform="translate(0,0)"/>
<path d="" fill="#000000" transform="translate(0,0)"/>
<path d="" fill="#000000" transform="translate(0,0)"/>
<path d="" fill="#000000" transform="translate(0,0)"/>
<path d="" fill="#000000" transform="translate(0,0)"/>
<path d="" fill="#000000" transform="translate(0,0)"/>
<path d="" fill="#000000" transform="translate(0,0)"/>
<path d="" fill="#000000" transform="translate(0,0)"/>
<path d="" fill="#000000" transform="translate(0,0)"/>
<path d="" fill="#000000" transform="translate(0,0)"/>
<path d="" fill="#000000" transform="translate(0,0)"/>
<path d="" fill="#000000" transform="translate(0,0)"/>
<path d="" fill="#000000" transform="translate(0,0)"/>
<path d="" fill="#000000" transform="translate(0,0)"/>
<path d="" fill="#000000" transform="translate(0,0)"/>
<path d="" fill="#000000" transform="translate(0,0)"/>
<path d="" fill="#000000" transform="translate(0,0)"/>
<path d="" fill="#000000" transform="translate(0,0)"/>
<path d="" fill="#000000" transform="translate(0,0)"/>
<path d="" fill="#000000" transform="translate(0,0)"/>
<path d="" fill="#000000" transform="translate(0,0)"/>
<path d="" fill="#000000" transform="translate(0,0)"/>
<path d="" fill="#000000" transform="translate(0,0)"/>
<path d="" fill="#000000" transform="translate(0,0)"/>
<path d="" fill="#000000" transform="translate(0,0)"/>
<path d="" fill="#7D7C7B" transform="translate(0,0)"/>
<path d="" fill="#000000" transform="translate(0,0)"/>
<path d="" fill="#FDFDFD" transform="translate(0,0)"/>
<path d="" fill="#000000" transform="translate(0,0)"/>
<path d="" fill="#000000" transform="translate(0,0)"/>
<path d="" fill="#000000" transform="translate(0,0)"/>
<path d="" fill="#7D7C7B" transform="translate(0,0)"/>
<path d="" fill="#000000" transform="translate(0,0)"/>
<path d="" fill="#000000" transform="translate(0,0)"/>
<path d="" fill="#000000" transform="translate(0,0)"/>
<path d="" fill="#000000" transform="translate(0,0)"/>
<path d="" fill="#000000" transform="translate(0,0)"/>
<path d="" fill="#000000" transform="translate(0,0)"/>
<path d="" fill="#000000" transform="translate(0,0)"/>
<path d="" fill="#000000" transform="translate(0,0)"/>
<path d="" fill="#000000" transform="translate(0,0)"/>
<path d="" fill="#000000" transform="translate(0,0)"/>
<path d="" fill="#000000" transform="translate(0,0)"/>
<path d="" fill="#FDFDFD" transform="translate(0,0)"/>
<path d="" fill="#7D7C7B" transform="translate(0,0)"/>
<path d="" fill="#000000" transform="translate(0,0)"/>
<path d="" fill="#7D7C7B" transform="translate(0,0)"/>
<path d="" fill="#FDFDFD" transform="translate(0,0)"/>
<path d="" fill="#000000" transform="translate(0,0)"/>
<path d="" fill="#000000" transform="translate(0,0)"/>
<path d="" fill="#000000" transform="translate(0,0)"/>
<path d="" fill="#000000" transform="translate(0,0)"/>
<path d="" fill="#000000" transform="translate(0,0)"/>
<path d="" fill="#000000" transform="translate(0,0)"/>
<path d="" fill="#000000" transform="translate(0,0)"/>
<path d="" fill="#000000" transform="translate(0,0)"/>
<path d="" fill="#000000" transform="translate(0,0)"/>
<path d="" fill="#000000" transform="translate(0,0)"/>
<path d="" fill="#000000" transform="translate(0,0)"/>
<path d="" fill="#000000" transform="translate(0,0)"/>
<path d="" fill="#000000" transform="translate(0,0)"/>
<path d="" fill="#000000" transform="translate(0,0)"/>
</svg>
